<svg id="Layer_1" data-name="Layer 1" xmlns="http://www.w3.org/2000/svg" viewBox="0 0 219.87 342.39"><defs><style>.cls-1{fill:#f1f2f2;}.cls-2{fill:#231f20;}.cls-3{fill:#fedd00;}.cls-4{fill:#f15a29;}.cls-5{fill:#6abd45;}</style></defs><title>Artboard 9 copy 56</title><path class="cls-1" d="M153.49,185.52c0,30.5-18.52,51.58-39.81,51.58S74.33,216,74.33,185.52c0-17.67,6.07-33.37,15.3-43.49.21,0,.41.08.61.1.65.06,2.1.11,2.82.12h.42a21.44,21.44,0,0,0,38.65,0v0c.49,0,.68,0,1,0s.82,0,1.22-.05a.3.3,0,0,1,.12,0c.48,0,.95-.09,1.39-.15s1.13-.2,1.7-.34C147.13,151.79,153.49,167.65,153.49,185.52Z"/><path class="cls-1" d="M147.46,121.47c0,9-8.7,15.81-18.19,15.81l-.6,0a17.25,17.25,0,0,1-31.72,0l-.58,0c-9.52,0-18.21-6.81-18.21-15.81,0-6.41,5.92-11.38,11.58-14v-7a8.15,8.15,0,0,0,.81-1.85.2.2,0,0,1,.34-.09c1.34,1.28,2.74,2.52,3.55,1.76s2.41-9.11,2.64-7.46c.41,3,2.13,3.68,2.85,3.91,1.38.46,3.68-1.47,4.87-5.18a9.32,9.32,0,0,1,2.9-4.63A.21.21,0,0,1,108,87a27.52,27.52,0,0,0,1.14,3.72c.6,1.39,1.2,4.08,3.77,3.37s2.78-4.81,8.77-5.3a20.55,20.55,0,0,0,7.18-2,.19.19,0,0,1,.29.19c-.26,2.69,1.25,6.84,2,6.84.35,0,.86-.57,1.42-1.34a11.57,11.57,0,0,1,.62,1.77c.46,1.93-.53,3.4.32,5.38a4.76,4.76,0,0,0,2.29,2.57v5.24C141.55,110.09,147.46,115.06,147.46,121.47Z"/><path class="cls-2" d="M129.18,63.87s-2.17,1.72-2.5,2.68a3.09,3.09,0,0,0-.09,1.75s1.29,15.07,1.47,16,.15.76,1,1.65,1.17.75,2.13.77,3.89-2.49,3.89-2.49,5.55-4.23,7-5.11,13.86-4.2,14-4.25c1-.42,3.36-1.71,3.57-3,.67-7.09-6.87-8.1-8.84-9.14a36.55,36.55,0,0,0-6.94-2.93,13.24,13.24,0,0,0-2.22-.45C135.37,58.71,129.18,63.87,129.18,63.87Z"/><path class="cls-3" d="M134.44,68.69l.73,8.18s3.8-3,5.29-3.88,11.86-.11,12.32-4.07c.18-1.57-2.73-2.17-4.51-2.7s-4.36-2-5.94-2.36C139.19,63.15,134.44,68.69,134.44,68.69Z"/><path class="cls-2" d="M86.13,59.35a13.24,13.24,0,0,0-2.22.45A36.55,36.55,0,0,0,77,62.73c-2,1-9.51,2.05-8.84,9.14.21,1.25,2.58,2.54,3.57,3,.13,0,12.51,3.36,14,4.25s7,5.11,7,5.11,2.93,2.52,3.88,2.49,1.28.11,2.13-.77.8-.78,1-1.65,1.47-16,1.47-16a3.09,3.09,0,0,0-.09-1.75c-.33-1-2.49-2.68-2.49-2.68S92.43,58.71,86.13,59.35Z"/><path class="cls-3" d="M93.37,68.69l-.73,8.18s-3.81-3-5.3-3.88S75.48,72.88,75,68.92c-.18-1.57,2.74-2.17,4.52-2.7s4.35-2,5.93-2.36C88.62,63.15,93.37,68.69,93.37,68.69Z"/><ellipse class="cls-2" cx="102.16" cy="105.78" rx="5.12" ry="4.88"/><ellipse class="cls-2" cx="123.46" cy="105.78" rx="5.12" ry="4.88"/><polygon class="cls-2" points="120.1 126.38 105.52 126.38 105.52 130.78 110.2 130.78 110.2 136.69 114.84 136.69 114.84 130.78 120.1 130.78 120.1 126.38"/><path class="cls-3" d="M101.92,258.33l-.33,7.3-.38,5.17s-.43,5.31-.66,7.06-.84,5.49-.84,5.49l-.4-1.27s-.54-2.13-.67-3.2-.42-2.56-.42-2.56a3.09,3.09,0,0,0-2.29-1.58,2.8,2.8,0,0,0-2.58.94s-1,1.45-1.87,3a32.47,32.47,0,0,1-3.15,4.08v-2.31a21.37,21.37,0,0,1,1-4.65c.42-1.52.69-2.25.69-2.25a2.62,2.62,0,0,0-1.2-2.41,3.46,3.46,0,0,0-3.2-.08s-1.12.81-2.68,2a11.67,11.67,0,0,1-4.16,1.62s1.49-1.77,2.56-3,1-.85,4.3-4.14,13.25-10.78,13.25-10.78Z"/><path class="cls-3" d="M149.06,275.18a11.58,11.58,0,0,1-4.15-1.62l-2.69-2a3.46,3.46,0,0,0-3.2.08,2.6,2.6,0,0,0-1.2,2.4s.27.74.69,2.27a20.43,20.43,0,0,1,1,4.64v2.3a33.76,33.76,0,0,1-3.14-4.08c-.85-1.52-1.86-3-1.86-3a2.8,2.8,0,0,0-2.59-.93,3.06,3.06,0,0,0-2.28,1.57s-.3,1.49-.43,2.56-.66,3.2-.66,3.2l-.4,1.26s-.61-3.74-.85-5.49-.67-7-.67-7l-.36-5.18-.34-7.3,3.06-1.6s9.93,7.47,13.25,10.78,3.24,2.92,4.3,4.14S149.06,275.18,149.06,275.18Z"/><path class="cls-2" d="M178.86,181.23c-7.57-29.13-31.23-44-31.23-44l-.52-.24a19.31,19.31,0,0,0,6.7-14.51,19.61,19.61,0,0,0-10.39-17.13c-.42-.24-.85-.46-1.28-.66V73.77l-1.72-.39-7.25-1.61H94.08l-2.81,5.45-4.29-2L83.49,73.6v31.05A19.77,19.77,0,0,0,71.8,122.44a19.35,19.35,0,0,0,7,14.78l.6.48c-4.06,2.79-23.7,17.48-30.47,43.53-7.56,29.09,6.89,48.31,6.89,48.31s7.34,9.9,15.35,14.16a11.88,11.88,0,0,0,4.19,1.52,62.4,62.4,0,0,0,11.08,13.62,87.12,87.12,0,0,0-6.82,6c-4.74,4.88-5.41,6.08-5.41,6.08s-2.22,3-1.26,5.16S77.22,279,77.22,279a12.47,12.47,0,0,0,3.27,0,11.24,11.24,0,0,0,2.55-.69s-.52,4.89.77,7.11S86.25,288,86.25,288a4.89,4.89,0,0,0,4-.35,11.17,11.17,0,0,0,3.4-3l.8-1a11.68,11.68,0,0,0,2.36,4.52,5.75,5.75,0,0,0,3.71,2,5.63,5.63,0,0,0,1.93-.45,8.64,8.64,0,0,0,1.11-1,14,14,0,0,0,1.9-4.49c.37-1.75,1.24-8.76,1.76-14.63a35.53,35.53,0,0,0,6.69.65,36.32,36.32,0,0,0,6.62-.63c.53,6,1.44,13.36,1.83,15.15a14.45,14.45,0,0,0,1.88,4.51,10.37,10.37,0,0,0,1.13.94,5.63,5.63,0,0,0,1.93.45,5.73,5.73,0,0,0,3.69-2,11.55,11.55,0,0,0,2.36-4.52l.82,1a11.09,11.09,0,0,0,3.38,3,5,5,0,0,0,4,.35s1.12-.29,2.42-2.53.77-7.1.77-7.1a11.23,11.23,0,0,0,2.57.69,12.93,12.93,0,0,0,3.27,0s3.29-.71,4.25-2.9-1.25-5.16-1.25-5.16-.67-1.19-5.43-6.07a92.28,92.28,0,0,0-7.13-6.28,61.78,61.78,0,0,0,11.4-13.9,11.85,11.85,0,0,0,4.18-1.52c8-4.26,15.35-14.16,15.35-14.16S186.42,210.32,178.86,181.23ZM78.16,121.47c0-6.41,5.92-11.38,11.58-14v-29h46.13v29c5.68,2.66,11.59,7.63,11.59,14,0,9-8.7,15.81-18.19,15.81l-.6,0a17.25,17.25,0,0,1-31.72,0l-.58,0C86.85,137.28,78.16,130.47,78.16,121.47ZM62.78,192.61c-.05.66-.09,1.31-.11,1.91a94,94,0,0,0,.57,13.08,96.17,96.17,0,0,0,4.82,22l1.82,6.54S49.1,223.49,53.14,191.59c4-31.41,21.22-42.48,21.22-42.48s-.49,1.34-1.25,3.56A93.89,93.89,0,0,0,62.78,192.61Zm38.44,78.2s-.44,5.29-.67,7.05-.85,5.48-.85,5.48l-.4-1.26s-.52-2.13-.66-3.2-.42-2.56-.42-2.56a3.14,3.14,0,0,0-2.29-1.58,2.84,2.84,0,0,0-2.59.95,32.68,32.68,0,0,0-1.85,3,34.08,34.08,0,0,1-3.15,4.09v-2.31a21.23,21.23,0,0,1,1-4.65c.44-1.52.7-2.26.7-2.26a2.66,2.66,0,0,0-1.2-2.41,3.51,3.51,0,0,0-3.2-.07l-2.69,2a11.58,11.58,0,0,1-4.15,1.64s1.5-1.78,2.56-3,1-.84,4.29-4.15c1.24-1.22,3.4-3,5.61-4.8a42.79,42.79,0,0,0,10.21,5.39Zm41-2.77c3.32,3.31,3.24,2.94,4.31,4.16s2.56,3,2.56,3a11.79,11.79,0,0,1-4.17-1.61l-2.69-2a3.49,3.49,0,0,0-3.19.07,2.61,2.61,0,0,0-1.19,2.41s.26.74.68,2.27a21.11,21.11,0,0,1,1,4.64v2.31a32.29,32.29,0,0,1-3.14-4.09c-.85-1.51-1.87-3-1.87-3a2.8,2.8,0,0,0-2.58-1,3,3,0,0,0-2.28,1.58s-.3,1.5-.43,2.56-.67,3.2-.67,3.2l-.4,1.26s-.6-3.73-.83-5.49-.68-7-.68-7l-.23-3.26a42.48,42.48,0,0,0,9.88-5.14C138.59,264.81,140.9,266.74,142.2,268ZM113.68,237.1c-21.28,0-39.35-21.08-39.35-51.58,0-17.67,6.07-33.37,15.3-43.49.21,0,.41.08.61.1.65.06,2.1.11,2.82.12h.42a21.44,21.44,0,0,0,38.65,0v0c.49,0,.68,0,1,0s.82,0,1.22-.05a.3.3,0,0,1,.12,0c.48,0,.95-.09,1.39-.15s1.13-.2,1.7-.34c9.55,10.08,15.91,25.94,15.91,43.81C153.49,216,135,237.1,113.68,237.1Zm44.24-.95,1.82-6.51a97.63,97.63,0,0,0,4.83-22.13,94.43,94.43,0,0,0,.56-13c0-.6-.06-1.23-.11-1.9a94.22,94.22,0,0,0-10.39-40.12c-.73-2.11-1.19-3.39-1.19-3.39s17.23,11.07,21.22,42.48C178.7,223.49,157.92,236.15,157.92,236.15Z"/><path class="cls-4" d="M157.92,236.15l1.82-6.51a97.63,97.63,0,0,0,4.83-22.13,94.43,94.43,0,0,0,.56-13c0-.6-.06-1.23-.11-1.9a94.22,94.22,0,0,0-10.39-40.12c-.73-2.11-1.19-3.39-1.19-3.39s17.23,11.07,21.22,42.48C178.7,223.49,157.92,236.15,157.92,236.15Z"/><path class="cls-4" d="M62.67,194.52a94,94,0,0,0,.57,13.08,96.17,96.17,0,0,0,4.82,22l1.82,6.54S49.1,223.49,53.14,191.59c4-31.41,21.22-42.48,21.22-42.48s-.49,1.34-1.25,3.56a93.89,93.89,0,0,0-10.33,39.94C62.73,193.27,62.69,193.92,62.67,194.52Z"/><path class="cls-2" d="M146.85,93.79a14.8,14.8,0,0,1-.11,1.78,85,85,0,0,1-3.32,9.74,2.12,2.12,0,0,1-.7,1c-2.71,1-2-6.34-1.48-8.12.19-.65-1.57,2-2.62,3.4a2.19,2.19,0,0,1-2.75.61,4.76,4.76,0,0,1-2.29-2.57c-.85-2,.14-3.45-.32-5.38a11.57,11.57,0,0,0-.62-1.77c-.56.77-1.07,1.34-1.42,1.34-.79,0-2.3-4.15-2-6.84a.19.19,0,0,0-.29-.19,20.55,20.55,0,0,1-7.18,2c-6,.49-6.19,4.57-8.77,5.3s-3.17-2-3.77-3.37A27.52,27.52,0,0,1,108,87a.21.21,0,0,0-.33-.11,9.32,9.32,0,0,0-2.9,4.63c-1.19,3.71-3.49,5.64-4.87,5.18-.72-.23-2.44-.94-2.85-3.91-.23-1.65-1.89,6.75-2.64,7.46s-2.21-.48-3.55-1.76a.2.2,0,0,0-.34.09,8.15,8.15,0,0,1-.81,1.85c-1.16,2-3.06,4-3.77,4.16-.55.08-1.56-.64-2.48-1.78a9.26,9.26,0,0,1-2-4.41c-.31-2.1-.65-6.13.6-8.16a18.26,18.26,0,0,1,1.42-2,4,4,0,0,1,.74-.8c-.09.06-.37.21-.74.41-1.27.67-3.69,1.81-4.37,1.21-.91-.81,1.43-6.67,4.37-7.11a.53.53,0,0,1,.12,0c1.35-.12.85-.24-.12-.48-1.19-.29-3.12-.74-3.18-1.54-.1-1.17.28-2.27,3.18-3.35A24.12,24.12,0,0,1,86,75.71a1.94,1.94,0,0,0,1-.49c.43-.56-.46-1.27-.82-1.58A4.13,4.13,0,0,1,85,73.21c-2.12-1.64,3.83-4.34,4.71-4.9,1.42-.91,9.48.73,9.77-.12s-8.83-8.65-8.08-9.7,4.79.58,7.49,1.7,2.2,2.35,4.5,2,.23-3.07,1.79-3.74,3.89.58,6,1.15,2.94-1.78,6.73-1.32.75,3.31,5.54,3.31,5.14-1.25,6.81.51.68,2.41,2.47,4.8,8,3.89,8.39,5.11c.14.39-.2.84-.67,1.33-.92,1-2.34,2.15-.94,3.27.7.56,1.67,1.39,2.66,2.35,1.8,1.76,3.69,3.91,4.17,5.48a.21.21,0,0,1-.31.22c-1.16-.59-4.37-2-3.49,0a10,10,0,0,0,2.21,2.66C146.52,89,146.85,91.93,146.85,93.79Z"/><path class="cls-5" d="M94.27,190.55H91.21v-3.89h3.52l.58-4.56H92v-3.89H95.8l.87-6.82h3.48l-.83,6.82h4.31l.87-6.82H108l-.83,6.82h3.27v3.89h-3.76l-.54,4.56h3.47v3.89h-3.93l-1,7.74h-3.51l.91-7.74H97.83l-1,7.74H93.36Zm8.28-3.89.58-4.56h-4.3l-.54,4.56Z"/><path class="cls-5" d="M135.37,193.36v4.93H116.54v-4.93h6.78V178.17H117.9v-3.76a26.51,26.51,0,0,0,4-1,20,20,0,0,0,3.08-1.41h4.47v21.35Z"/></svg>