<svg id="Layer_1" data-name="Layer 1" xmlns="http://www.w3.org/2000/svg" viewBox="0 0 201.28 295.88"><defs><style>.cls-1{fill:#d1181f;}.cls-2{fill:#fedd00;}.cls-3{fill:#f1f2f2;}.cls-4{fill:#231f20;}</style></defs><title>Artboard 9 copy 21</title><polygon class="cls-1" points="163.37 163.05 61.98 163.05 46.64 77.35 179.06 77.35 163.37 163.05"/><rect class="cls-2" x="69.81" y="40.96" width="12.4" height="123.75" transform="translate(5.47 -3.83) rotate(2.99)"/><rect class="cls-2" x="142.87" y="63.69" width="12.4" height="123.75" transform="translate(18 -18.69) rotate(7.63)"/><rect class="cls-2" x="154.63" y="65.26" width="12.4" height="123.75" transform="translate(43.43 -40.93) rotate(16.74)"/><rect class="cls-2" x="142.87" y="44.63" width="12.4" height="123.75" transform="translate(-16.11 27.24) rotate(-9.91)"/><path class="cls-3" d="M146.24,97.92c0,9-8.71,15.81-18.19,15.81a6.08,6.08,0,0,1-.61,0,17.24,17.24,0,0,1-31.71,0l-.59,0c-9.51,0-18.21-6.81-18.21-15.81,0-6.41,5.92-11.38,11.58-14v-7A8.41,8.41,0,0,0,89.32,75a.2.2,0,0,1,.34-.09c1.34,1.28,2.75,2.52,3.55,1.76s2.41-9.11,2.64-7.46c.42,3,2.13,3.68,2.86,3.91,1.37.46,3.67-1.47,4.86-5.17a9.37,9.37,0,0,1,2.9-4.64.21.21,0,0,1,.33.11,27.09,27.09,0,0,0,1.14,3.72c.6,1.39,1.2,4.08,3.77,3.37s2.78-4.8,8.77-5.3a20.78,20.78,0,0,0,7.18-2,.18.18,0,0,1,.29.18c-.26,2.69,1.25,6.84,2,6.84.36,0,.87-.57,1.42-1.34a10.92,10.92,0,0,1,.62,1.77c.46,1.93-.53,3.4.32,5.38a4.75,4.75,0,0,0,2.29,2.58v5.23C140.32,86.54,146.24,91.51,146.24,97.92Z"/><path class="cls-4" d="M128,40.32S125.78,42,125.45,43a3.09,3.09,0,0,0-.09,1.75s1.29,15.07,1.47,16,.15.76,1,1.65,1.17.75,2.13.78,3.89-2.49,3.89-2.49,5.55-4.24,7-5.12,13.86-4.2,14-4.25c1-.42,3.36-1.71,3.57-3,.67-7.1-6.87-8.1-8.84-9.14a35.87,35.87,0,0,0-6.93-2.94,12.56,12.56,0,0,0-2.23-.44C134.14,35.16,128,40.32,128,40.32Z"/><path class="cls-2" d="M133.21,45.15l.73,8.17s3.8-3,5.29-3.88,11.87-.1,12.32-4.07c.18-1.57-2.73-2.17-4.51-2.7s-4.35-2-5.94-2.36C138,39.61,133.21,45.15,133.21,45.15Z"/><path class="cls-4" d="M84.91,35.81a12.39,12.39,0,0,0-2.23.44,36,36,0,0,0-6.94,2.94c-2,1-9.5,2-8.84,9.14.21,1.24,2.58,2.53,3.57,3,.13,0,12.51,3.37,14,4.25s7.05,5.12,7.05,5.12,2.93,2.51,3.88,2.49,1.28.1,2.13-.78.81-.77,1-1.65,1.47-16,1.47-16A3.09,3.09,0,0,0,99.89,43c-.33-1-2.49-2.68-2.49-2.68S91.2,35.16,84.91,35.81Z"/><path class="cls-2" d="M92.14,45.15l-.73,8.17s-3.81-3-5.29-3.88-11.87-.1-12.33-4.07c-.18-1.57,2.74-2.17,4.52-2.7s4.35-2,5.94-2.36C87.39,39.61,92.14,45.15,92.14,45.15Z"/><ellipse class="cls-4" cx="100.93" cy="82.23" rx="5.12" ry="4.88"/><ellipse class="cls-4" cx="122.23" cy="82.23" rx="5.12" ry="4.88"/><polygon class="cls-4" points="118.87 102.83 104.29 102.83 104.29 107.23 108.97 107.23 108.97 113.14 113.62 113.14 113.62 107.23 118.87 107.23 118.87 102.83"/><path class="cls-2" d="M100.69,234.78l-.33,7.31-.37,5.17s-.43,5.3-.66,7.05-.85,5.49-.85,5.49l-.4-1.27s-.54-2.13-.67-3.2-.42-2.56-.42-2.56a3.06,3.06,0,0,0-2.29-1.57,2.77,2.77,0,0,0-2.58.94s-1,1.44-1.87,3a32.72,32.72,0,0,1-3.14,4.08v-2.31a21.11,21.11,0,0,1,1-4.64c.42-1.52.69-2.26.69-2.26a2.62,2.62,0,0,0-1.2-2.41,3.46,3.46,0,0,0-3.19-.07s-1.12.8-2.69,2a11.77,11.77,0,0,1-4.16,1.63s1.49-1.78,2.56-3,1-.85,4.3-4.15,13.25-10.77,13.25-10.77Z"/><path class="cls-2" d="M147.84,251.63a11.6,11.6,0,0,1-4.16-1.62L141,248a3.46,3.46,0,0,0-3.2.08,2.59,2.59,0,0,0-1.19,2.41s.26.73.69,2.26a21,21,0,0,1,1,4.64v2.31a33.76,33.76,0,0,1-3.14-4.08c-.85-1.53-1.86-3-1.86-3a2.82,2.82,0,0,0-2.58-.93,3.06,3.06,0,0,0-2.29,1.57s-.3,1.49-.43,2.56-.66,3.2-.66,3.2l-.4,1.27s-.61-3.75-.85-5.49-.67-7-.67-7l-.36-5.18-.33-7.3,3-1.6s9.93,7.47,13.26,10.78,3.23,2.93,4.29,4.14S147.84,251.63,147.84,251.63Z"/><path class="cls-4" d="M177.63,157.68c-7.57-29.12-31.22-44-31.22-44l-.53-.23a19.35,19.35,0,0,0,6.7-14.52,19.59,19.59,0,0,0-10.39-17.12,14.23,14.23,0,0,0-1.28-.67V50.22l-1.72-.39-7.25-1.6H92.85L90,53.68l-4.29-2-3.49-1.62V81.1A19.77,19.77,0,0,0,70.57,98.89a19.35,19.35,0,0,0,7,14.78l.6.48c-4.06,2.79-23.7,17.48-30.46,43.53C40.15,186.77,54.6,206,54.6,206s7.34,9.89,15.35,14.16a12.09,12.09,0,0,0,4.19,1.51,61.91,61.91,0,0,0,11.09,13.62,85.67,85.67,0,0,0-6.83,6c-4.74,4.88-5.4,6.09-5.4,6.09s-2.23,3-1.27,5.15S76,255.43,76,255.43a12.69,12.69,0,0,0,3.27,0,11.24,11.24,0,0,0,2.55-.69s-.52,4.89.77,7.12S85,264.41,85,264.41a4.85,4.85,0,0,0,4-.35,11.17,11.17,0,0,0,3.4-3l.8-1a11.63,11.63,0,0,0,2.37,4.53,5.68,5.68,0,0,0,3.7,2,5.4,5.4,0,0,0,1.93-.45,8.64,8.64,0,0,0,1.11-1,14,14,0,0,0,1.9-4.49c.37-1.75,1.24-8.76,1.76-14.63a35.53,35.53,0,0,0,6.69.65,36.43,36.43,0,0,0,6.63-.63c.52,6,1.43,13.36,1.82,15.15a14.32,14.32,0,0,0,1.88,4.51,9.25,9.25,0,0,0,1.13.94,5.4,5.4,0,0,0,1.93.45,5.68,5.68,0,0,0,3.69-2,11.62,11.62,0,0,0,2.36-4.53l.82,1a11.09,11.09,0,0,0,3.38,3,5,5,0,0,0,4,.35s1.12-.29,2.42-2.53.77-7.1.77-7.1a11.23,11.23,0,0,0,2.57.69,12.42,12.42,0,0,0,3.27,0s3.29-.71,4.25-2.9-1.25-5.16-1.25-5.16-.67-1.19-5.42-6.07a92.65,92.65,0,0,0-7.14-6.28,61.56,61.56,0,0,0,11.4-13.9,12,12,0,0,0,4.18-1.51c8-4.27,15.35-14.16,15.35-14.16S185.2,186.77,177.63,157.68ZM76.93,97.92c0-6.41,5.92-11.38,11.58-14v-29h46.13v29c5.68,2.66,11.6,7.63,11.6,14,0,9-8.71,15.81-18.19,15.81a6.08,6.08,0,0,1-.61,0,17.24,17.24,0,0,1-31.71,0l-.59,0C85.63,113.73,76.93,106.92,76.93,97.92ZM61.55,169.06c0,.66-.09,1.31-.11,1.91A93.81,93.81,0,0,0,62,184.05a96.16,96.16,0,0,0,4.81,22l1.83,6.55S47.87,199.94,51.92,168c4-31.41,21.21-42.48,21.21-42.48s-.49,1.34-1.25,3.57A93.85,93.85,0,0,0,61.55,169.06ZM100,247.26s-.43,5.29-.67,7.05-.85,5.49-.85,5.49l-.4-1.27s-.52-2.13-.66-3.2-.42-2.56-.42-2.56a3.11,3.11,0,0,0-2.28-1.57,2.83,2.83,0,0,0-2.6.94,32.68,32.68,0,0,0-1.85,3,34.08,34.08,0,0,1-3.15,4.09v-2.31a20.73,20.73,0,0,1,1-4.65c.43-1.51.69-2.25.69-2.25a2.65,2.65,0,0,0-1.2-2.41,3.49,3.49,0,0,0-3.2-.08l-2.69,2a11.68,11.68,0,0,1-4.15,1.63s1.5-1.77,2.56-3,1-.85,4.3-4.16c1.23-1.22,3.39-3,5.6-4.8a42.43,42.43,0,0,0,10.21,5.39Zm41-2.77c3.32,3.31,3.24,2.94,4.31,4.16s2.56,3,2.56,3a11.79,11.79,0,0,1-4.17-1.61L141,248a3.5,3.5,0,0,0-3.2.08,2.6,2.6,0,0,0-1.19,2.41s.26.74.68,2.27a20.91,20.91,0,0,1,1,4.63v2.31a32.29,32.29,0,0,1-3.14-4.09c-.85-1.51-1.87-3-1.87-3a2.77,2.77,0,0,0-2.57-.94,3,3,0,0,0-2.29,1.57s-.29,1.5-.43,2.56-.67,3.2-.67,3.2l-.4,1.27s-.6-3.74-.83-5.5-.68-7-.68-7l-.23-3.26A41.91,41.91,0,0,0,135,239.4C137.36,241.27,139.67,243.2,141,244.49Zm-28.52-30.94c-21.28,0-39.35-21.08-39.35-51.58,0-17.66,6.07-33.37,15.31-43.48.2,0,.4.07.6.09.65.06,2.1.11,2.82.12a2.91,2.91,0,0,1,.42,0,21.44,21.44,0,0,0,38.65,0v0c.5,0,.68,0,1,0s.82,0,1.22,0h.13c.47,0,.94-.1,1.38-.16a15,15,0,0,0,1.7-.34c9.55,10.09,15.91,26,15.91,43.81C152.26,192.47,133.74,213.55,112.45,213.55Zm44.24-.94,1.82-6.52A98.05,98.05,0,0,0,163.35,184a96.06,96.06,0,0,0,.55-13c0-.6-.06-1.23-.11-1.89A94,94,0,0,0,153.4,129c-.72-2.12-1.19-3.4-1.19-3.4s17.24,11.07,21.22,42.48C177.48,199.94,156.69,212.61,156.69,212.61Z"/><path class="cls-3" d="M152.26,162c0,30.5-18.52,51.58-39.81,51.58S73.1,192.47,73.1,162c0-17.66,6.07-33.37,15.31-43.48.2,0,.4.07.6.09.65.06,2.1.11,2.82.12a2.91,2.91,0,0,1,.42,0,21.44,21.44,0,0,0,38.65,0v0c.5,0,.68,0,1,0s.82,0,1.22,0h.13c.47,0,.94-.1,1.38-.16a15,15,0,0,0,1.7-.34C145.9,128.25,152.26,144.11,152.26,162Z"/><path class="cls-3" d="M156.69,212.61l1.82-6.52A98.05,98.05,0,0,0,163.35,184a96.06,96.06,0,0,0,.55-13c0-.6-.06-1.23-.11-1.89A94,94,0,0,0,153.4,129c-.72-2.12-1.19-3.4-1.19-3.4s17.24,11.07,21.22,42.48C177.48,199.94,156.69,212.61,156.69,212.61Z"/><path class="cls-3" d="M61.44,171A93.81,93.81,0,0,0,62,184.05a96.16,96.16,0,0,0,4.81,22l1.83,6.55S47.87,199.94,51.92,168c4-31.41,21.21-42.48,21.21-42.48s-.49,1.34-1.25,3.57a93.85,93.85,0,0,0-10.33,39.93C61.51,169.72,61.46,170.37,61.44,171Z"/><path class="cls-4" d="M145.62,70.25a14.31,14.31,0,0,1-.11,1.77,84.29,84.29,0,0,1-3.32,9.75,2.15,2.15,0,0,1-.69,1c-2.72,1-2-6.34-1.49-8.12.19-.65-1.57,2.06-2.62,3.4a2.21,2.21,0,0,1-2.75.62,4.75,4.75,0,0,1-2.29-2.58c-.85-2,.14-3.45-.32-5.38a10.92,10.92,0,0,0-.62-1.77c-.55.77-1.06,1.34-1.42,1.34-.79,0-2.3-4.15-2-6.84a.18.18,0,0,0-.29-.18,20.78,20.78,0,0,1-7.18,2c-6,.5-6.19,4.57-8.77,5.3s-3.17-2-3.77-3.37a27.09,27.09,0,0,1-1.14-3.72.21.21,0,0,0-.33-.11,9.37,9.37,0,0,0-2.9,4.64c-1.19,3.7-3.49,5.63-4.86,5.17-.73-.23-2.44-.94-2.86-3.91C95.62,67.59,94,76,93.21,76.7s-2.21-.48-3.55-1.76a.2.2,0,0,0-.34.09,8.41,8.41,0,0,1-.81,1.86c-1.15,2-3.05,4-3.76,4.15s-1.56-.63-2.49-1.78a9.26,9.26,0,0,1-2-4.41c-.31-2.1-.65-6.13.6-8.16a19.72,19.72,0,0,1,1.42-2,4.36,4.36,0,0,1,.74-.8c-.09.06-.37.21-.74.41-1.27.67-3.69,1.81-4.37,1.21-.91-.8,1.44-6.67,4.37-7.1l.12,0c1.35-.13.85-.25-.12-.48-1.19-.3-3.12-.74-3.18-1.55C79,55.13,79.36,54,82.26,53c.7-.26,1.51-.52,2.52-.79a1.82,1.82,0,0,0,1-.49c.43-.56-.46-1.27-.82-1.58a3.6,3.6,0,0,1-1.17-.43c-2.12-1.63,3.83-4.34,4.71-4.89,1.42-.91,9.48.72,9.77-.13S89.41,36,90.17,35s4.78.57,7.49,1.69,2.19,2.35,4.49,2,.23-3.07,1.79-3.73,3.89.57,6,1.14,3-1.78,6.73-1.31.76,3.3,5.54,3.3,5.15-1.25,6.81.51.68,2.41,2.47,4.8,8,3.89,8.39,5.11c.14.39-.2.84-.67,1.33-.92,1-2.34,2.15-.94,3.28.7.55,1.67,1.39,2.66,2.34,1.81,1.76,3.69,3.91,4.17,5.48a.21.21,0,0,1-.31.22c-1.16-.59-4.37-2-3.49,0a10.27,10.27,0,0,0,2.21,2.65C145.29,65.49,145.62,68.38,145.62,70.25Z"/><rect class="cls-2" x="60.66" y="60.32" width="12.4" height="123.75" transform="translate(-23.81 16.45) rotate(-11.92)"/><path class="cls-1" d="M164.13,221H62.73L52.27,108s15,26.38,60.4,26.11,61.06-27.58,61.06-27.58Z"/></svg>